<?xml version="1.0" encoding="UTF-8"?>
<svg id="Calque_1" data-name="Calque 1" xmlns="http://www.w3.org/2000/svg" viewBox="0 0 1000 1000">
  <defs>
    <style>
      .cls-1 {
        fill: #fff;
      }
    </style>
  </defs>
  <path class="cls-1" d="M341.34,139.53l-116.26,116.23-139.53,139.53v604.72h139.53v-169.6h116.26v169.6h139.53V0l-139.53,139.53ZM341.34,690.9h-116.26v-237.82l116.26-116.28v354.1Z"/>
  <polygon class="cls-1" points="914.44 760.65 914.44 767.32 907.76 760.65 914.44 760.65"/>
  <polygon class="cls-1" points="914.44 760.65 914.44 767.32 907.76 760.65 914.44 760.65"/>
  <polygon class="cls-1" points="774.92 733.3 774.92 627.8 668.25 521.13 668.25 908.36 774.92 908.36 774.92 852.29 713.38 852.29 713.38 760.65 907.76 760.65 914.44 767.32 914.44 1000 528.73 1000 528.73 218.42 668.25 357.94 774.92 464.64 914.44 604.16 914.44 733.3 774.92 733.3"/>
</svg>