<?xml version="1.0" encoding="UTF-8"?>
<svg id="Calque_1" xmlns="http://www.w3.org/2000/svg" version="1.1" viewBox="0 0 1000 1000">
  <!-- Generator: Adobe Illustrator 30.5.0, SVG Export Plug-In . SVG Version: 2.1.4 Build 167)  -->
  <defs>
    <style>
      .st0 {
        fill: #fff;
      }
    </style>
  </defs>
  <path class="st0" d="M0,689.3v-.56l187.67-225.96c.17-.21.44-.3.7-.25l416.8,85.75c.11.03.21-.04.24-.15,0-.04,0-.08,0-.11l-107.02-305.01c-.04-.12-.18-.19-.3-.14-.07.02-.12.08-.14.14l-79.92,226.54c-.05.13-.19.2-.32.17l-156.1-36.79c-.2-.05-.32-.25-.27-.45,0-.01,0-.02,0-.03L399.02,42.24c.13-.37.41-.67.77-.82L497.64.16c.37-.15.77-.2,1.16-.13l239.62,41.04c.11.02.18.12.16.23,0,.04-.03.08-.06.11l-107.3,96.09c-.08.07-.12.19-.08.3l141.32,402.77c.08.23.33.34.55.27.01,0,.02,0,.03-.01l226.72-102.75c.08-.04.17,0,.21.08.02.04.02.08,0,.12l-61.81,173.91c-.16.45-.45.86-.82,1.16l-274.4,222.08c-.31.25-.71.35-1.1.27l-524.47-111.44c-.28-.06-.57-.03-.83.09l-59.82,26.07c-.25.1-.41.35-.4.63l7.06,189.31c0,.11.09.19.2.19.08,0,.15-.06.18-.13l60.57-175.75c.07-.22.3-.34.53-.3l156.39,35.72c.24.05.39.29.33.53,0,.01,0,.03-.01.04l-20.16,58.48c-.21.61-.63,1.14-1.17,1.48l-216.4,137.31c-.12.07-.27.04-.35-.08-.02-.03-.03-.06-.03-.09L0,689.3Z"/>
  <path class="st0" d="M702.36,860.04l141.29-117.96c.12-.1.29-.09.39.03.02.03.04.06.05.09l89.47,257.42c.05.14-.02.3-.17.35-.07.03-.15.02-.22-.02l-204.03-102.83s-.08-.04-.1-.08l-26.72-36.64c-.08-.12-.07-.28.04-.37Z"/>
</svg>