<?xml version="1.0" encoding="UTF-8"?>
<svg id="Calque_1" xmlns="http://www.w3.org/2000/svg" version="1.1" viewBox="0 0 1000 1000">
  <!-- Generator: Adobe Illustrator 30.7.0, SVG Export Plug-In . SVG Version: 2.1.4 Build 114)  -->
  <defs>
    <style>
      .st0 {
        fill: #fff;
      }
    </style>
  </defs>
  <path class="st0" d="M833.7,360.01v149.09h-101.74v-47.35h-463.93v47.35h204.52v487.67c-102.09-59.11-204.17-118.23-306.26-177.34v-151.17h101.74v94.88l102.78,49.76v-202.06h-204.52v-250.83h667.41Z"/>
  <polygon class="st0" points="731.97 82.87 731.97 196.03 550.88 196.03 550.88 86.15 500 86.15 449.12 86.15 449.12 196.03 268.03 196.03 268.03 82.87 166.29 19.07 166.29 297.77 500 297.77 833.71 297.77 833.71 19.07 731.97 82.87"/>
  <polygon class="st0" points="833.7 579.67 833.7 787.52 731.96 851.31 601.73 932.97 499.99 996.77 499.99 507.46 601.73 507.46 601.73 812.88 731.96 731.22 731.96 643.47 833.7 579.67"/>
</svg>