<?xml version="1.0" encoding="UTF-8"?>
<svg id="Calque_1" data-name="Calque 1" xmlns="http://www.w3.org/2000/svg" viewBox="118.49 200.88 763.01 598.26">
  <defs>
    <style>
      .cls-1 {
        fill: #0a0a0a;
      }
    </style>
  </defs>
  <path class="cls-1" d="M556.23,300.32l9.78-34.75c3.49-12.4-5.83-24.69-18.71-24.69h-171.98c-4.33,0-8.54,1.45-11.95,4.11-44.74,34.92-89.5,69.84-134.26,104.77-3.26,2.55-5.63,6.07-6.75,10.05l-60.92,216.4c-13.96,49.59,23.3,98.79,74.82,98.79h188.85c12.88,0,22.19,12.3,18.7,24.7l-9.78,34.74c-3.49,12.4,5.83,24.7,18.7,24.7h171.9c4.33,0,8.54-1.45,11.95-4.11,44.76-34.94,89.54-69.86,134.31-104.8,3.26-2.55,5.63-6.07,6.75-10.06l60.9-216.36c13.96-49.59-23.31-98.78-74.82-98.78h-188.8c-12.88,0-22.19-12.3-18.71-24.69ZM648.4,646.33h-163.91c-12.88,0-22.19-12.3-18.7-24.7l9.78-34.74c3.49-12.4-5.83-24.7-18.7-24.7h-153.01c-12.88,0-22.19-12.3-18.7-24.7l47.75-169.65c2.36-8.38,10-14.17,18.7-14.17h163.95c12.88,0,22.19,12.3,18.7,24.7l-9.78,34.74c-3.49,12.4,5.83,24.7,18.7,24.7h152.97c12.88,0,22.19,12.3,18.7,24.7l-47.75,169.65c-2.36,8.38-10,14.17-18.7,14.17Z"/>
</svg>