<?xml version="1.0" encoding="UTF-8"?>
<svg id="Calque_1" data-name="Calque 1" xmlns="http://www.w3.org/2000/svg" viewBox="0 0 1000 1000">
  <defs>
    <style>
      .cls-1 {
        fill: #fff;
      }
    </style>
  </defs>
  <path class="cls-1" d="M593.68,0H88.6v427.14c47.91-56.94,113.84-98.2,189-115.02v-123.12h313.94c54.11,0,97.97,43.86,97.97,97.97h0c0,54.11-43.86,97.97-97.97,97.97h-156.87c-191.13,0-346.07,154.94-346.07,346.07v268.99h189v-232.72c0-106.78,86.56-193.34,193.34-193.34h122.73c157.31,0,284.84-127.53,284.84-284.84v-4.26C878.51,127.53,750.99,0,593.68,0Z"/>
  <path class="cls-1" d="M689.51,657.19v57.54c0,53.17-43.1,96.27-96.27,96.27h-218.02v189h227.09c152.54,0,276.21-123.66,276.21-276.21v-175.87c-44.95,58.62-112.16,99.26-189,109.27Z"/>
</svg>