<?xml version="1.0" encoding="UTF-8"?>
<svg id="Calque_1" xmlns="http://www.w3.org/2000/svg" version="1.1" viewBox="0 0 1000 757.74">
  <!-- Generator: Adobe Illustrator 30.5.0, SVG Export Plug-In . SVG Version: 2.1.4 Build 167)  -->
  <defs>
    <style>
      .st0 {
        fill: #fff;
      }
    </style>
  </defs>
  <path class="st0" d="M.03.11C.13-.01.3-.04.43.06c0,0,0,0,0,0,142.04,106.54,256.87,192.65,344.48,258.34,1.04.78,1.56,1.71,1.56,2.79-.09,46-.12,90.06-.1,132.19,0,.23-.16.43-.38.47-13.83,2.85-26.57,7.66-38.11,15.66-16.62,11.53-27.26,27.98-30.72,47.79-2.27,12.98-1.8,26.55,1.08,38.71,4.09,17.24,14.1,30.74,30.36,38.35,12.99,6.09,28.83,8.11,42.77,7.44,10.23-.49,20.16-1.82,29.78-3.97,1.35-.3,2.66-.67,3.94-1.1.24-.08.41-.31.41-.58l-.81-199.95c0-.23.18-.42.41-.42.08,0,.16.02.22.06l224.63,142.46c.28.17.44.47.44.8v237.7c0,.26-.21.47-.47.47h0c-85.81,0-206.31,0-361.49,0-3.52,0-8.29-1.21-11.99-2.01-37.13-8.08-70.86-22.32-101.17-42.71-40.88-27.5-71.15-67.61-84.07-115.5-3.64-13.46-6-27.12-7.09-40.97-2.23-28.28-.79-56.38,4.32-84.28,3.78-20.66,10.37-39.79,19.77-57.39,14.62-27.36,35.54-47.69,62.78-60.98,11.89-5.79,25.81-10.18,38.69-12.1.86-.13,1.76-.37,2.72-.72.2-.07.3-.3.23-.5,0-.02-.02-.04-.03-.06-17.87-30.66-36.91-63.58-57.13-98.75C74.24,129.67,35.78,62.69.05.38-.01.27-.02.18.03.11Z"/>
  <path class="st0" d="M999.97,757.63c-.09.13-.27.15-.39.06,0,0,0,0,0,0-142.02-106.53-256.83-192.64-344.42-258.33-1.04-.78-1.56-1.71-1.56-2.78.09-46,.12-90.06.11-132.18,0-.23.16-.43.38-.47,13.83-2.84,26.57-7.65,38.1-15.66,16.62-11.53,27.26-27.98,30.72-47.78,2.27-12.98,1.81-26.55-1.07-38.71-4.09-17.23-14.1-30.73-30.36-38.34-12.98-6.09-28.82-8.11-42.76-7.45-10.23.49-20.16,1.82-29.78,3.97-1.35.3-2.66.67-3.94,1.1-.24.08-.41.31-.41.58l.8,199.92c0,.23-.18.42-.41.42-.08,0-.16-.02-.22-.06l-224.59-142.45c-.28-.17-.44-.47-.44-.8l.02-237.68c0-.26.21-.47.47-.47h0c85.8,0,206.28,0,361.45.02,3.52,0,8.29,1.21,11.99,2.01,37.13,8.08,70.85,22.32,101.15,42.71,40.88,27.5,71.13,67.6,84.06,115.49,3.64,13.46,6,27.12,7.08,40.96,2.23,28.28.79,56.38-4.32,84.28-3.78,20.66-10.37,39.79-19.77,57.39-14.62,27.36-35.54,47.68-62.78,60.97-11.89,5.79-25.81,10.18-38.68,12.09-.86.13-1.76.37-2.72.72-.2.07-.3.3-.23.5,0,.02.02.04.03.06,17.86,30.66,36.9,63.58,57.12,98.74,41.19,71.63,79.64,138.6,115.36,200.91.06.11.07.2.02.27Z"/>
</svg>