<?xml version="1.0" encoding="UTF-8"?>
<svg id="Calque_1" data-name="Calque 1" xmlns="http://www.w3.org/2000/svg" viewBox="0 0 1000 1000">
  <defs>
    <style>
      .cls-1 {
        fill: #fff;
      }
    </style>
  </defs>
  <polygon class="cls-1" points="914.44 760.65 914.44 767.32 907.76 760.65 914.44 760.65"/>
  <polygon class="cls-1" points="914.44 760.65 914.44 767.32 907.76 760.65 914.44 760.65"/>
  <g>
    <polygon class="cls-1" points="415.77 484.57 415.77 547.84 464.37 547.84 464.37 484.56 440.08 465.06 415.77 484.57"/>
    <path class="cls-1" d="M953.4,435.65h-73.82v-157.57l76.21-78.48H0l87.83,79.15v517.62l74.53-55.8,35.17-26.33c31.61-23.66,66.71-49.95,99.51-74.5v9.4h286.1v-8.02s27.38,20.3,27.38,20.3l26.66,19.76,27.39-18.74,88.24-60.36,41.67,33.43,57.61,46.22,72.15,57.89,75.76,60.78v-364.74h-46.6ZM206.57,313.55v83.42c39.13,20.13,78.27,40.27,117.4,60.4v103.98c-55.58,41.62-133.98,100.31-189.55,141.92v-206.31h72.15v48.2l45.24-33.87v-23.39c-39.13-20.13-78.26-40.26-117.39-60.39v-169.5c-4.37-3.94-8.74-7.87-13.11-11.81h163.15c13.17,8.38,26.34,16.76,39.51,25.15,0,19.12,0,38.23,0,57.35h-72.16v-15.15h-45.24ZM536.52,461.04c0,47.17,0,94.33,0,141.5h-192.91c0-47.16,0-94.32,0-141.48l45.72-36.68-45.72-36.68c0-47.16,0-94.32,0-141.48h192.91c0,47.17,0,94.33,0,141.5l-45.71,36.67,45.71,36.67ZM740.43,554.09c-34.06,23.3-68.11,46.59-102.17,69.89-28.93-21.44-57.86-42.89-86.79-64.33V246.2h71.24v267.24l46.49,40.06V246.2h71.24v307.89ZM953.4,601.79v101.48l-72.15-57.89-57.61-46.22-62.8-50.38v-289.57c-4.21-4.34-8.42-8.68-12.64-13.01h97.39c-4.2,4.33-8.4,8.65-12.61,12.98v246l48.27,38.73v-61.67h72.15v119.54Z"/>
    <polygon class="cls-1" points="415.77 364.17 440.08 383.67 464.37 364.18 464.37 300.9 415.77 300.9 415.77 364.17"/>
  </g>
</svg>