<?xml version="1.0" encoding="UTF-8"?>
<svg id="Calque_1" xmlns="http://www.w3.org/2000/svg" version="1.1" viewBox="0 0 1000 407.26">
  <!-- Generator: Adobe Illustrator 30.5.0, SVG Export Plug-In . SVG Version: 2.1.4 Build 167)  -->
  <defs>
    <style>
      .st0 {
        fill: #fff;
      }
    </style>
  </defs>
  <path class="st0" d="M407.59,136.73c-.08-.09-.21-.09-.3-.01-.04.04-.07.1-.07.16.06,77.12.06,141,.01,191.64,0,1.54-.36,4.43-1.09,8.67-5.69,33.4-33.31,61.61-66.13,68.49-5.21,1.09-13.8,1.62-25.77,1.59-32.03-.07-109.28-.08-231.73-.06-10.75,0-21.49-2.34-32.22-7.01-1.75-.76-5.09-2.49-10.01-5.2-2-1.1-3.88-2.36-5.63-3.76-3.39-2.72-5.15-4.14-5.3-4.26-14.72-13.07-23.97-28.8-27.75-47.19-1.13-5.52-1.66-14.95-1.59-28.28C.08,297.01.1,193.34.05.48.05.24.24.04.48.04h86.48c.48,0,.86.38.86.85v317.27c0,.46.37.83.82.83h229.45c.21,0,.38-.17.38-.38V.56c0-.29.24-.52.53-.52h87.06c.37,0,.72.16.96.43l186.49,216.59c.09.1.26.11.36.02.05-.05.08-.11.08-.18-.02-49.17-.02-93.52.01-133.05,0-10.79,1.88-20.9,5.61-30.33,10.23-25.83,32.82-46.02,60.28-51.73C665.6.59,675.65,0,689.98,0c168.11.05,271.32.06,309.62.03.22,0,.4.18.4.4v87.4c0,.24-.19.43-.43.43h0c-149.39.04-246.63.03-291.75-.03-8.75-.01-14.47.57-17.18,1.75-6.05,2.62-9.07,8.21-9.06,16.78.04,45.02.03,106.21-.01,183.6,0,10.1.35,16.16,1.07,18.19,3.63,10.25,12.53,10.48,23.33,10.47,47.75-.02,145.59-.03,293.51-.01.28,0,.51.23.51.51h0v87c0,.38-.31.68-.68.68-187.66.01-295.09.01-322.27,0-12.04,0-23.39-2.43-34.05-7.28-13.25-6.01-24.39-15.24-33.44-27.7-3.57-4.91-6.21-8.35-7.91-10.33-104.77-121.57-167.57-194.51-188.38-218.8-2.42-2.84-4.32-4.95-5.68-6.35Z"/>
</svg>